<svg version="1.1" id="Layer_1" xmlns="http://www.w3.org/2000/svg" x="0" y="0" viewBox="0 0 90.2 90.2" xml:space="preserve">
  <g>
    <path fill="#2F465E" d="M90.2 86c0 2.3-1.8 4.2-4.1 4.2H4A4.2 4.2 0 0 1 0 86V4.2C0 1.9 1.8 0 4 0h82c2.3 0 4.1 1.9 4.1 4.2V86z"/>
    <path fill="#8D9EB2" d="M86 0H4.3C2.9 0 1.7.6.9 1.5c2.4 2.8 6 10.7 7 11.8 1.4 1.5 3.7 3.4 4.7 4 1 .6 67.3 2.3 67.3 2.3s2.3-7.6 4.6-10.5c1.1-1.4 3.1-4.6 4.8-7.5A4 4 0 0 0 86 0z"/>
    <path fill="#4F5D71" d="M90.2 86V4.2a4 4 0 0 0-1.3-3c-.9 1.3-2.3 3.1-4.2 4.6-4 3-2.7 7.3-2.7 7.3s-2.1 63.5-1.2 65.7c.7 1.5 5.9 6.9 8.6 9.7.5-.7.8-1.5.8-2.5z"/>
    <path fill="#455A6D" d="M7.8 9.1 1 1.5a5 5 0 0 0-1 2.7V86c0 1.3.6 2.4 1.4 3.2A16 16 0 0 0 6.5 83l2.9-7s2-24 2-34.8C11.1 30.3 7.7 9 7.7 9z"/>
    <path fill="#5E7286" d="M17.1 7.5S7.3 10.3 8 14a343 343 0 0 1 1.4 39.6c-.6 11.7-.7 23-.4 23.5.3.5 4.8 5.5 11.4 5.7C27 83 34 81.2 34 81.2s17 .6 17.7 1c.7.3 4.3 3 8 2.9 3.6-.2 11.3-5.2 13-5.2 1.8 0 9.2 3.4 9.6-1 .3-4.6 0-66.5 0-66.5S78.7 11.2 77 11c-1.7-.2-6.8-3-9-3.8-2.3-.9-44.9-2-50.9.3z"/>
    <g>
      <path fill="#C7DBE4" d="M17.2 7.6c-2 .6-4 1.4-6 2.4-.8.5-1.7 1.1-2.4 1.9a3 3 0 0 0-.7 1.3v.8l.1.8A245 245 0 0 1 10 40.2 225.6 225.6 0 0 1 10 53l-.2 6.3-.2 6.4V72a17 17 0 0 0 0 3.2v1.7-.1l.2.3.5.6a17.6 17.6 0 0 0 8 4.4A49.2 49.2 0 0 0 33.8 81h.1l14.8.6 1.8.2h1l.1.1h.1l.2.2.4.2c1 .7 2 1.3 3.2 1.7 1.1.5 2.3.8 3.5.8a9 9 0 0 0 3.5-.8 98 98 0 0 0 6.6-3.1 65.5 65.5 0 0 1 2.6-1.2l1-.2 1 .1.9.3 1.7.4c1.2.2 2.4.5 3.5.3.6 0 1-.2 1.4-.6.3-.3.5-.8.5-1.4v-7.3l-.1-29.5-.1-14.7V12.4l.4.7a40 40 0 0 0-4.8-1.4h-.5l-.6-.2-2-.8c-1.3-.5-2.5-1.2-3.8-1.8l-1.8-.8-.5-.2-.2-.1h-.2l-1-.2c-2.6-.3-5.4-.4-8.1-.6a455.2 455.2 0 0 0-33-.5 80.7 80.7 0 0 0-6.2.6l-2 .5zm0-.1c.6-.3 1.3-.4 2-.5l2-.3A94.4 94.4 0 0 1 33.6 6a456.6 456.6 0 0 1 24.8 0h4.1l4.2.3 1 .2h.4l.3.2.5.2 1.9.8 3.7 1.8a16.4 16.4 0 0 0 2.3.8h.5l1 .2 4.1 1.2.5.2v.5a2411 2411 0 0 1 .1 29.5v29.4c0 2.5 0 5-.2 7.4a3 3 0 0 1-.8 2 3 3 0 0 1-2 .8h-2a19 19 0 0 1-1.8-.4l-1.8-.5-.9-.2-.8-.2-.8.2a20.4 20.4 0 0 0-2.5 1c-2.2 1.1-4.4 2.3-6.7 3.1l-1.8.6-1.9.2c-1.3 0-2.5-.4-3.7-.8a22 22 0 0 1-3.2-1.8l-.4-.3h-.2v-.1h-.2l-.8-.1-1.9-.1-7.3-.4-7.4-.2a67.5 67.5 0 0 1-12.6 1.7A15.5 15.5 0 0 1 15 82a18.4 18.4 0 0 1-6-4.2l-.3-.3v-.1l-.2-.3V77l-.1-1.7V72a271.4 271.4 0 0 1 .2-12.7l.3-6.4a298.4 298.4 0 0 0-.1-25.4l-.3-6.4c0-2-.2-4.2-.4-6.3L8 14v-.8c0-.6.4-1 .7-1.4a10 10 0 0 1 2.6-2 31 31 0 0 1 6-2.3z"/>
    </g>
    <path fill="#5E7286" d="M35.2 5.3s21.4-1.1 27-1c5.5.2 11.7 3.3 12.5 3.3.9 0-6.6-2-12.2-2.3H35.2z"/>
    <path fill="#C7DBE4" d="M9.5 78.4s-1 .9-1.1 1.9a26 26 0 0 1-5.3 8c-.9.2-1.7.9-1.7.9s4.2-4.8 5-8.3c.8-3.5 1.9-6 1.9-6l1.2 3.5zM9.3 8.5c.7.8 9.8-1.5 9.8-1.5s-8.8 2.5-10 4.4c-1.2 2-1 5.5-1 5.5S8 11 6.8 9.5L1 1.5s7.7 6.2 8.4 7zm72.5-.2c-.3 2-2.5 3-2.5 3l1.6.5c1 .3 1.4 2.5 1.4 2.2 0-.2.5-2.8 1-4.2.6-1.4 3-4.6 3.9-5.5a10 10 0 0 0 1.7-3.2c-.4-.5-6.7 5.2-7 7.1z"/>
    <g fill="#2F465E">
      <path opacity=".4" d="M68.8 80s-8.6 4-10.9 3.7c-2.2-.4-6-2.3-6.5-2.4-.5-.2 8.8-2.1 12.5-2.5 3.7-.3 6.3.5 5 1.2z"/>
      <path d="M68.8 80s-5.6-.1-7.3.3c-1.7.5-10.3 1-10.3 1S58.8 78 61.5 78c2.7-.1 7 0 7.7.6.8.6.4 1.4-.4 1.4z"/>
    </g>
    <path opacity=".5" fill="#C7DBE4" d="M3.4.8s1.4 2.7 4.4 4.6c3 1.9 19.5-1.4 27.3-1.7 7.8-.4 24.2-.1 31.3.6 7 .8 10.2 3.2 11.6 2.5 1.4-.7 6.2-5.7 7.4-5.7L3.4.7z"/>
    <path opacity=".2" fill="#C7DBE4" d="M17 24.1c-4.2 2.6-5.2 3.5-4.9 8.9.4 5.4 2.4 33 2.4 39.3 0 6.2 8.8 7.4 19 5.7 10.3-1.8 29.6-2.4 36.1-1 6.5 1.3 9.4-3.7 9.4-9.6-.1-5.9-4.5-11.8-7.2-11.7-2.8.1-11.4-1.6-2.2-5.2C79 47 71.8 40.7 63.8 34c-8-6.7-30.8-22-40.3-22-9.5 0-9.7.4-9 2.7.7 2.2 2.4 9.4 2.4 9.4z"/>
    <path opacity=".4" fill="#2F465E" d="M12.7 18.4c-2.8 4.6-.8 8.4 2.1 6.3 3-2-.2-9.4-2.1-6.3z"/>
    <path opacity=".2" fill="#C7DBE4" d="M54.3 72.8s-23.7 4.3-29 2c-5.4-2.2-8.3-14.5-7.1-17.6C19.4 54 29.4 60.5 37 63c7.6 2.6 21.8 8.1 17.3 9.7z"/>
    <path fill="#152C45" d="M10 83.7c-2.4 1.7-7.8 4.4 3.8 4.8 11.6.4 38.3 1 49.1.7 10.9-.3 25.8 1.6 24.2-.7-1.7-2.3-3.6-4.6-5.6-4.4-2 .3-10.7 2.6-14.3 2.6-3.6 0-15.5-1.6-20.3-1.6-4.7 0-23.5 1.9-27.7.2-4.3-1.6-7.9-2.5-9.2-1.6z"/>
    <path opacity=".5" fill="#2F465E" d="M5.7 41.4c.9 2.5 2.6 7 1.6 11.2-1 4.2-1.1 10-1.8 12.3-.7 2.1-2.7-3.8-3-8.5-.4-4.6 2-18.2 3.2-15z"/>
    <path opacity=".2" fill="#C7DBE4" d="M86.5 29c-1.1 2.5-1.3 4.9-1.1 9.4.2 4.5-1 7.1.5 8.5 1.4 1.4 3 1 3 1s.3-18 0-21.3c-.3-3.5-2.4 2.5-2.4 2.5z"/>
    <path fill="#2F465E" d="M87.7 6.1c-2 2-3.8 6.7-3.6 8.9.3 2.2 1 4 1.8 4.6.9.7 2.5-5.3 2.5-7.5 0-2.3-.7-6-.7-6z"/>
    <path opacity=".2" fill="#C7DBE4" d="M88.4 55.7c0-2-2.2-1.7-3.3-1.3-1 .4-1.6 6.5-1 11.5.6 5 1 15.7 2.4 17.5 1.4 1.7 3.2-7 2.4-12.1-.7-5.2-.5-15.6-.5-15.6z"/>
    <path fill="#C7DBE4" d="M82.3 78.7a54.7 54.7 0 0 0 7.1 9.8s-6.8-6.2-7-6.7c-.3-.4-2.7-.6-2.7-.6s2.6-1.2 2.6-2.5z"/>
    <g fill="#C7DBE4">
      <path opacity=".2" d="M34.4 7.4c-4.8.3-2.3 3.4 5.5 7.4 8 4 32.4 18 35.8 21.8 3.3 3.8 2.1-5.6 1.9-9.1-.3-3.6.2-5.1.7-7.5.4-2.3-.5-6.9-1.2-7-.6-.2-10-4.8-11.7-5l-31-.6z"/>
      <path opacity=".2" d="M78.3 17c0-1.8-12-8-15.5-9C59.2 7 42 8.6 39 8c-3-.4 18 5.2 21.4 6.7C64 16.3 72 21 75.8 21c4 0 2.5-4 2.5-4z"/>
    </g>
    <g>
      <path fill="#2F465E" d="M34.9 81.5s2.9-3.4 3.3-4.7c.5-1.3 1.5-1.6 2.1-1 .6.5 4.3 5 4 6-.2 1-2.2 4-2.5 5L40.5 90S35 82.9 35 81.5z"/>
      <path fill="#8D9EB2" d="M40.1 81c0-1.5-.4-5.5-.4-5.5l.6.3s4.4 5 4 5.5L40.6 90l-.4-9z"/>
      <path fill="#C7DBE4" d="M43 81.1c0-1.2-2.9-5.6-2.9-5.6l6.1 5.8-5.7 8.7s2.7-7.6 2.6-8.9z"/>
    </g>
    <g>
      <path fill="#2F465E" d="M82.7 18.9s-3.2 3-4.8 3c-1.5 0-9.2 2.8-9.2 2.8s10.5-.2 11.2 0c.8.1 2.3 3.2 2.3 3.2s1.5-3.7 2.5-3.8l5.5.4-7.5-5.6z"/>
      <path fill="#8D9EB2" d="m68.7 24.7 11-2 6 .5 3.8 1.2a24 24 0 0 0-4.8-.2c-1 0-2.5 3.7-2.5 3.7s-1.5-3-2.3-3.2c-.7-.2-10.9 0-11.2 0z"/>
      <path fill="#C7DBE4" d="M71.8 24.5h8.4c.4 0 2 1.4 2 1.4l2.6-2.1 5.4.7s-5.7.2-5.9.5l-2.4 4.4s-2.2-4-3.2-4.1l-10-.6 3.1-.2z"/>
    </g>
    <g>
      <path fill="#2F465E" d="M8.4 66.4c.1 0 3.5 2 4.8 2.4 1.3.3 1.6 1 1 1.5-.5.4-5 3.2-6 3-1-.2-4-1.7-5-2L0 70.6s7.1-4.1 8.4-4.1z"/>
      <path fill="#8D9EB2" d="m9 70.2 5.5-.3-.3.4s-5 3.2-5.4 3L0 70.5l9-.3z"/>
      <path fill="#C7DBE4" d="M8.9 72.3c1.2 0 5.6-2.1 5.6-2.1l-5.8 4.4L0 70.5s7.6 2 8.9 1.8z"/>
    </g>
    <g>
      <path fill="#2F465E" d="M24.7 4.3c2.6 0 4.7.6 6 1 1.2.3 1.6 1 1 1.5-.6.4-5 3.1-6 3l-5-2-3.2-.9s1.3-2.6 7.2-2.6z"/>
      <path fill="#8D9EB2" d="m26.5 6.6 5.5-.3-.3.5s-5 3.1-5.5 3c-.5-.3-8.7-2.9-8.7-2.9l9-.3z"/>
      <path fill="#C7DBE4" d="M26.3 8.8c1.3-.1 5.6-2.2 5.6-2.2L26.1 11l-8.6-4s7.6 1.9 8.8 1.8z"/>
    </g>
  </g>
</svg>