<svg version="1.1" id="Layer_1" xmlns="http://www.w3.org/2000/svg" x="0" y="0" viewBox="0 0 90.2 90.2" xml:space="preserve">
  <g>
    <g>
      <path fill="#2F465E" d="M90.2 86c0 2.3-1.8 4.2-4.1 4.2H4A4.2 4.2 0 0 1 0 86V4.2C0 1.9 1.8 0 4 0h82c2.3 0 4.1 1.9 4.1 4.2V86z"/>
      <path fill="#8D9EB2" d="M86 0H4.3C2.9 0 1.7.6.9 1.5c2.4 2.8 6 10.7 7 11.8 1.4 1.5 3.7 3.4 4.7 4 1 .6 67.3 2.3 67.3 2.3s2.3-7.6 4.6-10.5c1.1-1.4 3.1-4.6 4.8-7.5A4 4 0 0 0 86.1 0z"/>
      <path fill="#4F5D71" d="M90.2 86V4.2a4 4 0 0 0-1.3-3c-.9 1.3-2.3 3.1-4.2 4.6-3.9 3-2.7 7.3-2.7 7.3s-2.1 63.5-1.2 65.7a80 80 0 0 0 8.7 9.7c.4-.7.7-1.5.7-2.5z"/>
      <path fill="#455A6D" d="M7.8 9.1 1 1.5c-.5.7-1 1.8-1 2.7V86c0 1.3.6 2.4 1.4 3.2A16 16 0 0 0 6.5 83l2.9-7s2-24 2-34.8C11.1 30.3 7.7 9 7.7 9z"/>
      <path fill="#5E7286" d="M17.1 7.5S7.3 10.3 8 14a343 343 0 0 1 1.4 39.6c-.6 11.7-.7 23-.4 23.5.4.5 4.8 5.5 11.4 5.7C27 83 34 81.2 34 81.2s17 .6 17.7 1c.7.3 4.3 3 8 2.9 3.6-.2 11.4-5.2 13-5.2 1.8 0 9.3 3.4 9.6-1 .4-4.6 0-66.5 0-66.5S78.7 11.2 77 11c-1.7-.2-6.7-3-9-3.8-2.3-.9-44.9-2-50.9.3z"/>
      <g>
        <path fill="#C7DBE4" d="M17.2 7.6c-2 .6-4 1.4-6 2.4-.8.5-1.7 1.1-2.4 1.9a3 3 0 0 0-.7 1.3v.8l.1.8A245 245 0 0 1 10 40.2 225.6 225.6 0 0 1 10 53l-.2 6.3c0 2.2 0 4.3-.2 6.4v11.2-.1l.2.3.5.6a17.6 17.6 0 0 0 8 4.4A49.2 49.2 0 0 0 33.8 81h.1l14.8.6 1.8.2h1l.2.1.2.2.4.2a14 14 0 0 0 6.7 2.5c1.2 0 2.4-.4 3.5-.8 2.3-.9 4.4-2 6.6-3.1a65.5 65.5 0 0 1 2.6-1.2l1-.2 1 .1.9.3 1.8.4c1.1.2 2.3.5 3.5.3.5 0 1-.2 1.3-.6.4-.3.5-.8.5-1.4V41.8l-.2-14.7V12.4l.4.7a40 40 0 0 0-4.8-1.4h-.6l-.5-.2-2-.8c-1.3-.5-2.5-1.2-3.8-1.8l-1.8-.8-.5-.2-.2-.1h-.2l-1-.2c-2.6-.3-5.4-.4-8.1-.6a452.1 452.1 0 0 0-33-.5 80.7 80.7 0 0 0-8.2 1.1zm0-.1c.6-.3 1.3-.4 2-.5l2-.3A95.3 95.3 0 0 1 33.6 6a457.2 457.2 0 0 1 24.8 0h4.2c1.3.2 2.7.2 4.1.3l1 .2h.4l.3.2.5.2 1.9.8 3.7 1.8a16.4 16.4 0 0 0 2.3.8h.5l1 .2 4.1 1.2.5.2v.5l.1 14.7v44.2c0 2.5 0 5-.2 7.4a3 3 0 0 1-.8 2 3 3 0 0 1-2 .8h-2a19 19 0 0 1-1.8-.4l-1.8-.5-.9-.2-.8-.2-.8.2a20.4 20.4 0 0 0-2.5 1c-2.2 1.1-4.4 2.3-6.7 3.1l-1.8.6-1.9.2c-1.3 0-2.5-.4-3.7-.8a22 22 0 0 1-3.2-1.8l-.4-.3h-.2v-.1h-.2l-.9-.1-1.8-.1-7.4-.4-7.3-.2a67.5 67.5 0 0 1-12.6 1.7 15.5 15.5 0 0 1-6.4-1.2 18.4 18.4 0 0 1-6-4.2l-.3-.3v-.1l-.2-.3V77l-.1-1.7V72a271.4 271.4 0 0 1 .2-12.7l.2-6.4a282.7 282.7 0 0 0 0-25.4l-.3-6.4c-.1-2-.2-4.2-.5-6.3V14c-.1-.2-.1-.5 0-.8 0-.6.3-1 .7-1.4a10 10 0 0 1 2.6-2 31 31 0 0 1 6-2.3z"/>
      </g>
      <path fill="#5E7286" d="M35.2 5.3s21.4-1.1 27-1c5.5.2 11.7 3.3 12.5 3.3.9 0-6.6-2-12.2-2.3H35.2z"/>
      <g>
        <path fill="#2F465E" d="M82.7 46.7s-3.2 3-4.8 3c-1.5.1-9.2 2.8-9.2 2.8s10.5-.2 11.2 0c.8.2 2.3 3.2 2.3 3.2s1.5-3.6 2.5-3.7c1-.1 5.5.3 5.5.3l-7.5-5.6z"/>
        <path fill="#8D9EB2" d="m68.7 52.5 11-2 6 .5 3.8 1.2a24 24 0 0 0-4.8-.2c-1 0-2.5 3.7-2.5 3.7s-1.5-3-2.3-3.2c-.7-.2-10.9 0-11.2 0z"/>
        <path fill="#C7DBE4" d="M71.8 52.3h8.4c.4 0 2 1.4 2 1.4l2.6-2 5.4.6s-5.7.2-6 .6c0 .3-2.3 4.3-2.3 4.3s-2.3-4-3.2-4.1l-10-.6 3.1-.2z"/>
      </g>
      <path fill="#C7DBE4" d="M9.5 78.4s-1 .9-1.1 1.9a28 28 0 0 1-5.3 8c-.9.2-1.7.9-1.7.9s4.2-4.8 5-8.3c.8-3.5 1.9-6 1.9-6l1.2 3.5zM9.3 8.5c.7.8 9.8-1.5 9.8-1.5s-8.7 2.5-10 4.4c-1.1 2-1 5.5-1 5.5S8 11 6.8 9.5L1 1.5s7.7 6.2 8.4 7zm72.5-.2c-.3 2-2.5 3-2.5 3l1.6.5c1 .3 1.4 2.5 1.4 2.2 0-.2.5-2.8 1-4.2.6-1.4 3-4.6 3.9-5.5 1-.8 1.7-3.2 1.7-3.2-.4-.5-6.7 5.2-7 7.1z"/>
      <g>
        <path fill="#2F465E" d="M8.4 17c.1 0 3.5 2.9 4.8 3.3 1.3.5 1.6 1.5 1 2.1-.5.6-5 4.3-6 4-1-.3-4-2.2-5-2.6L0 22.6S7.1 17 8.4 17z"/>
        <path fill="#8D9EB2" d="M9 22.2c1.5 0 5.5-.4 5.5-.4l-.3.6s-5 4.4-5.4 4L0 22.7l9-.4z"/>
        <path fill="#C7DBE4" d="M8.9 25.2c1.2-.1 5.6-3 5.6-3l-5.8 6L0 22.7s7.6 2.7 8.9 2.6z"/>
      </g>
      <g>
        <path fill="#2F465E" d="M82.2 19.8s-1.9 1.8-2.5 2.1c-.7.3-1 1-.6 1.3.3.4 2.7 2.8 3.3 2.6l2.6-1.6 1.5-.8s-3.6-3.6-4.3-3.6z"/>
        <path fill="#8D9EB2" d="m81.9 23.1-3-.3.2.4s2.7 2.8 3 2.6l4.4-2.4-4.6-.3z"/>
        <path fill="#C7DBE4" d="M82 25c-.7 0-3-1.9-3-1.9l3.1 4 4.4-3.7S82.7 25.1 82 25z"/>
      </g>
      <path opacity=".5" fill="#C7DBE4" d="M3.4.8s1.4 2.7 4.4 4.6c3 1.9 19.5-1.4 27.3-1.7 7.8-.4 24.2-.1 31.3.6 7 .8 10.2 3.2 11.6 2.5 1.4-.7 6.2-5.7 7.4-5.7L3.4.7z"/>
      <path opacity=".2" fill="#C7DBE4" d="M17 24.1c-4.2 2.6-5.2 3.5-5 8.9.4 5.4 2.5 33 2.5 39.3 0 6.2 8.8 7.4 19 5.7 10.3-1.8 18.4 1.9 25 3.2 6.4 1.4 20.5-7.9 20.4-13.8 0-5.8-4.4-11.8-7.1-11.7-2.8.1-11.4-1.6-2.2-5.2C79 47 81.1 20.8 73.1 14.1c-8-6.7-40-2-49.6-2-9.5 0-9.7.3-9 2.6.7 2.2 2.4 9.4 2.4 9.4z"/>
      <path fill="#5E7286" d="M32.7 28.3c-5.4.8-7 4.8-3.5 5.7 3.5.9 7.1-6.3 3.5-5.7zM67.2 59c-5.4.9-7 4.9-3.5 5.8 3.5.9 7.1-6.3 3.5-5.7z"/>
      <path opacity=".2" fill="#C7DBE4" d="M54.3 72.8s-23.7 4.3-29 2c-5.4-2.2-8.4-14.5-7.1-17.6C19.4 54 29.4 60.5 37 63c7.6 2.6 21.8 8.1 17.3 9.7z"/>
      <path fill="#152C45" d="M10 83.7c-2.4 1.7-7.8 4.4 3.8 4.8 11.6.4 38.3 1 49.1.7 10.9-.3 25.8 1.6 24.2-.7-1.7-2.3-3.6-4.6-5.6-4.4-2 .3-10.7 2.6-14.3 2.6-3.6 0-15.5-1.6-20.3-1.6-4.7 0-23.5 1.9-27.7.2-4.3-1.6-7.9-2.5-9.2-1.6z"/>
      <path opacity=".5" fill="#2F465E" d="M5.7 53.1c.9 2.5 2.6 7.1 1.6 11.3-1 4.1-1.1 10-1.8 12.2-.7 2.2-2.7-3.8-3-8.4-.4-4.7 2-18.3 3.2-15z"/>
      <path opacity=".2" fill="#C7DBE4" d="M86.5 25.3c-1.1 2.9-1.3 5.7-1.1 11.2.2 5.4-1 8.5.5 10.2 1.4 1.6 3 1.2 3 1.2s.3-21.5 0-25.7c-.3-4-2.4 3-2.4 3z"/>
      <path fill="#2F465E" d="M87.7 6.1c-2 2-3.8 6.7-3.6 8.9.3 2.2 1 4 1.8 4.6.9.7 2.5-5.3 2.5-7.5 0-2.3-.7-6-.7-6z"/>
      <path opacity=".2" fill="#C7DBE4" d="M88.4 55.7c0-2-2.2-1.7-3.3-1.3-1 .4-1.6 6.5-1 11.5.6 5 1 15.7 2.4 17.5 1.4 1.7 3.2-7 2.4-12.1-.7-5.2-.5-15.6-.5-15.6z"/>
      <path fill="#C7DBE4" d="M82.3 78.7a54.7 54.7 0 0 0 7.1 9.8s-6.8-6.2-7-6.7c-.3-.4-2.7-.6-2.7-.6s2.6-1.2 2.6-2.5z"/>
    </g>
    <path fill="#455A6D" d="M78.4 72.9s-1.2 2.8-3.7 3.4c-2.5.6-.8 2.2 1.3 3.3 2.1 1 4.6-1.3 4.7-4 0-2.9-1.5-4-2.3-2.7z"/>
  </g>
</svg>