<svg xmlns="http://www.w3.org/2000/svg" viewBox="0 0 496 456.84" xml:space="preserve"><path fill="currentColor" d="M205.47 456.84c-1.43 0-2.87-.11-4.33-.34l-.72-.11c-7.47-1.18-13.98-5.24-18.32-11.44-4.29-6.11-5.91-13.5-4.57-20.84l9.03-76.68-21.45 53.28c-.07.18-.15.36-.24.54-3.37 6.78-9.2 11.76-16.41 14.05-7.21 2.29-14.85 1.56-21.51-2.04-6.66-3.6-11.44-9.59-13.48-16.88-2.04-7.29-1.06-14.9 2.77-21.43l66.99-114.43a101.996 101.996 0 0 0 13.97-51.5v-30.96l-15.8 24.82c-.08.13-.17.26-.26.39a19.69 19.69 0 0 1-15.86 8.07c-6.25 0-11.97-2.87-15.71-7.87-3.66-4.89-4.82-11.03-3.21-16.9l4.62-24.16-44.99 43.99a17.302 17.302 0 0 1-12.15 4.95c-6.25 0-11.85-3.22-15-8.61-3.01-5.16-3.19-11.3-.51-16.58l15.18-45.43-43.69 31.66c-.35.26-.73.48-1.12.67-8.5 4.14-18.6 1.51-24-6.26-5.54-7.96-4.23-18.8 3.05-25.21l43.75-38.52H31.6c-10.2 0-18.49-8.3-18.49-18.49 0-8.99 6.42-16.64 15.27-18.21l31.96-5.66-48.05-16.78C4.9 41.25 0 34.24 0 26.48 0 16.26 8.32 7.94 18.54 7.94h78.51c16.92 0 30.68 13.76 30.68 30.68v26.56c0 8.64 7.03 15.68 15.68 15.68h68.56l4.12-9.88a39.8 39.8 0 0 1-3.52-3.93l-38.54-6.9c-6.99-1.25-14.25.92-19.41 5.8l-2.73 2.58a7.5 7.5 0 0 1-9.36.77 7.51 7.51 0 0 1-2.78-8.97l4.24-10.75a37.403 37.403 0 0 1 30.56-23.48l33.88-3.91A41.442 41.442 0 0 1 246.9.04c21.62.91 39.03 18.57 39.63 40.21.27 9.61-2.71 18.77-8.45 26.28l5.97 14.32h68.56c8.64 0 15.68-7.03 15.68-15.68V38.62c0-16.92 13.76-30.68 30.68-30.68h78.51c10.22 0 18.54 8.32 18.54 18.54 0 7.77-4.9 14.77-12.2 17.42l-48.13 16.8 31.96 5.66a18.466 18.466 0 0 1 15.27 18.21c0 10.2-8.3 18.49-18.49 18.49h-39.88l43.75 38.52a19.054 19.054 0 0 1 3.05 25.2c-5.4 7.77-15.5 10.4-24 6.26-.33-.16-.64-.34-.94-.54l-46.56-31.69 17.76 45.13c2.78 5.33 2.64 11.56-.41 16.78-3.15 5.39-8.76 8.61-15 8.61-4.57 0-8.88-1.76-12.15-4.95l-44.99-43.99 4.62 24.16c1.61 5.87.45 12.01-3.21 16.9-3.74 5-9.47 7.87-15.71 7.87a19.69 19.69 0 0 1-15.86-8.07c-.09-.12-.17-.24-.25-.36l-17.98-28.01v34.41c0 18.08 4.83 35.89 13.97 51.5l66.82 114.14c3.82 6.53 4.81 14.14 2.77 21.43-2.04 7.29-6.83 13.28-13.48 16.88-6.66 3.6-14.3 4.32-21.51 2.04-7.21-2.29-13.04-7.27-16.41-14.05-.09-.18-.17-.36-.24-.54l-21.45-53.28 9.03 76.67c1.34 7.33-.28 14.72-4.57 20.84-4.35 6.2-10.85 10.26-18.33 11.44l-.71.11c-15.05 2.38-29.24-7.93-31.64-22.97l-14.06-81.68-14.07 81.78c-2.18 13.52-13.97 23.24-27.32 23.24zm-4.9-171.81c.61 0 1.24.08 1.86.23 3.64.93 6.03 4.41 5.59 8.14L192.4 426.12c-.02.18-.05.36-.08.54-.66 3.4.08 6.83 2.07 9.67 1.99 2.84 4.97 4.7 8.39 5.24l.72.11c6.89 1.08 13.38-3.63 14.47-10.52l21.48-124.83a7.5 7.5 0 0 1 7.39-6.23 7.5 7.5 0 0 1 7.39 6.23l21.46 124.73c1.11 6.98 7.61 11.7 14.49 10.61l.71-.11c3.43-.54 6.41-2.4 8.39-5.24 1.99-2.83 2.72-6.27 2.07-9.67-.03-.18-.06-.36-.08-.54L285.65 293.4a7.496 7.496 0 0 1 14.4-3.67l42.3 105.08c1.56 2.98 4.17 5.18 7.39 6.2 3.3 1.05 6.8.72 9.85-.93s5.24-4.39 6.17-7.73c.93-3.34.48-6.82-1.27-9.81L297.67 268.4a117.042 117.042 0 0 1-16.02-59.08v-59.97a7.5 7.5 0 0 1 5.39-7.2c3.2-.94 6.62.34 8.42 3.14l31.65 49.29a4.626 4.626 0 0 0 3.63 1.76c2.01 0 3.18-1.16 3.7-1.85.52-.69 1.3-2.14.73-4.07-.07-.24-.13-.47-.17-.72l-9.17-47.98c-.62-3.22.93-6.47 3.82-8.02a7.485 7.485 0 0 1 8.79 1.25l62.09 60.71c.45.44 1.04.68 1.66.68 1.19 0 1.79-.74 2.05-1.18.26-.44.6-1.33.02-2.36-.17-.3-.32-.62-.45-.94l-26.84-68.18a7.519 7.519 0 0 1 2.3-8.61 7.507 7.507 0 0 1 8.9-.34l66.1 44.99c1.73.64 3.67.05 4.75-1.5 1.18-1.7.9-4.01-.65-5.38l-58.67-51.65a7.5 7.5 0 0 1 4.96-13.13h59.75c1.93 0 3.49-1.57 3.49-3.49 0-1.7-1.21-3.15-2.88-3.44L404.8 70.46A7.497 7.497 0 0 1 403.63 56l75.14-26.23c1.3-.47 2.24-1.81 2.24-3.29 0-1.95-1.59-3.54-3.54-3.54h-78.51c-8.64 0-15.68 7.03-15.68 15.68v26.56c0 16.92-13.76 30.68-30.68 30.68h-73.56c-3.03 0-5.76-1.82-6.92-4.62l-9.67-23.21a7.502 7.502 0 0 1 1.56-8.13c5.05-5.17 7.73-12 7.52-19.23-.39-13.8-11.48-25.06-25.27-25.64a26.42 26.42 0 0 0-25.79 16.85 7.52 7.52 0 0 1-6.13 4.74L176.26 41c-3.87.45-7.47 1.87-10.51 4.05 3.6-.42 7.28-.32 10.91.33l41.51 7.43c2.01.36 3.79 1.53 4.92 3.23 1.74 2.61 3.9 4.87 6.44 6.73a7.487 7.487 0 0 1 2.49 8.94l-8.14 19.53a7.51 7.51 0 0 1-6.92 4.62H143.4c-16.91 0-30.68-13.76-30.68-30.68V38.62c0-8.64-7.03-15.68-15.68-15.68h-78.5c-1.95 0-3.54 1.59-3.54 3.54 0 1.48.94 2.82 2.33 3.32L92.38 56a7.485 7.485 0 0 1 5 7.68 7.49 7.49 0 0 1-6.17 6.78L30.99 81.13c-1.67.3-2.89 1.74-2.89 3.44 0 1.93 1.57 3.49 3.49 3.49h59.75a7.51 7.51 0 0 1 7.02 4.85c1.1 2.92.28 6.22-2.06 8.28l-58.67 51.65a4.075 4.075 0 0 0-.65 5.38 4.06 4.06 0 0 0 4.67 1.53l61.94-44.89a7.504 7.504 0 0 1 8.84.03 7.499 7.499 0 0 1 2.68 8.42L92.34 191.5c-.15.45-.35.89-.58 1.31-.58 1.03-.24 1.92.02 2.36.26.44.86 1.18 2.05 1.18.62 0 1.21-.24 1.66-.68l62.09-60.71a7.5 7.5 0 0 1 8.79-1.25 7.51 7.51 0 0 1 3.82 8.02l-9.17 47.98c-.05.24-.1.48-.17.72-.57 1.93.21 3.38.73 4.07.52.69 1.69 1.85 3.7 1.85 1.41 0 2.75-.65 3.62-1.76l29.47-46.3c1.79-2.81 5.23-4.11 8.42-3.17a7.5 7.5 0 0 1 5.4 7.2v56.71c0 20.75-5.54 41.17-16.02 59.08l-66.99 114.43c-1.75 2.99-2.2 6.47-1.27 9.81.93 3.34 3.12 6.08 6.17 7.73 3.05 1.65 6.54 1.98 9.85.93 3.22-1.02 5.83-3.21 7.39-6.2l42.3-105.08a7.493 7.493 0 0 1 6.95-4.7z"/><path fill="currentColor" d="M247 233.11c-14.61 0-26.5-11.89-26.5-26.5s11.89-26.5 26.5-26.5 26.5 11.89 26.5 26.5-11.89 26.5-26.5 26.5zm0-38c-6.34 0-11.5 5.16-11.5 11.5s5.16 11.5 11.5 11.5 11.5-5.16 11.5-11.5-5.16-11.5-11.5-11.5zM244.5 58.11c-9.93 0-18-8.08-18-18s8.07-18 18-18 18 8.08 18 18-8.07 18-18 18zm0-21c-1.65 0-3 1.35-3 3s1.35 3 3 3 3-1.35 3-3-1.35-3-3-3zM286.99 428.11c-3.65 0-6.85-2.67-7.41-6.39l-22.51-150.61h-21.11l-21.54 150.56a7.503 7.503 0 0 1-8.49 6.36c-4.1-.59-6.95-4.39-6.36-8.49l22.46-157a7.504 7.504 0 0 1 7.42-6.44h34.07c3.71 0 6.87 2.72 7.42 6.39l23.46 157c.61 4.1-2.21 7.91-6.31 8.53-.36.07-.73.09-1.1.09zM182 156.11c-.93 0-1.87-.17-2.78-.54a7.496 7.496 0 0 1-4.18-9.75l14-35a7.495 7.495 0 0 1 6.96-4.71h34c4.14 0 7.5 3.36 7.5 7.5v24.5h17v-24.5c0-4.14 3.36-7.5 7.5-7.5h34c2.81 0 5.38 1.57 6.67 4.07l18 35c1.89 3.68.44 8.21-3.24 10.1-3.69 1.9-8.21.44-10.1-3.24l-15.91-30.93H269.5v24.5c0 4.14-3.36 7.5-7.5 7.5h-32c-4.14 0-7.5-3.36-7.5-7.5v-24.5h-21.42l-12.11 30.29a7.52 7.52 0 0 1-6.97 4.71zM122.99 154.11c-1.32 0-2.67-.35-3.88-1.09a7.509 7.509 0 0 1-2.53-10.3l20-33a7.501 7.501 0 0 1 6.41-3.61h28c4.14 0 7.5 3.36 7.5 7.5s-3.36 7.5-7.5 7.5h-23.78L129.4 150.5c-1.4 2.33-3.87 3.61-6.41 3.61zM369.01 153.11c-2.5 0-4.94-1.25-6.37-3.53l-17.8-28.47H321c-4.14 0-7.5-3.36-7.5-7.5s3.36-7.5 7.5-7.5h28c2.59 0 4.99 1.33 6.36 3.53l20 32a7.49 7.49 0 0 1-2.38 10.33 7.523 7.523 0 0 1-3.97 1.14z"/></svg>