<svg xmlns="http://www.w3.org/2000/svg" viewBox="0 0 457.45 481" xml:space="preserve"><path fill="currentColor" d="M449.95 40H378.4V7.5c0-4.14-3.36-7.5-7.5-7.5h-33.4c-4.14 0-7.5 3.36-7.5 7.5V40h-7.66V7.5c0-4.14-3.36-7.5-7.5-7.5H279.5c-4.14 0-7.5 3.36-7.5 7.5v188.53H7.5c-4.14 0-7.5 3.36-7.5 7.5v41.97c0 4.14 3.36 7.5 7.5 7.5h37.94L45 473.49c0 1.99.78 3.9 2.19 5.31a7.509 7.509 0 0 0 5.31 2.2h53.34c4.14 0 7.5-3.36 7.5-7.5V369H133v104.5c0 4.14 3.36 7.5 7.5 7.5h53.34c4.14 0 7.5-3.36 7.5-7.5V369H221v104.5c0 4.14 3.36 7.5 7.5 7.5h53.34c4.14 0 7.5-3.36 7.5-7.5V369h19.76v104.5c0 4.14 3.36 7.5 7.5 7.5h54.29c4.14 0 7.5-3.36 7.5-7.5V124h71.55c4.14 0 7.5-3.36 7.5-7.5v-69c.01-4.14-3.35-7.5-7.49-7.5zM327.84 56c8.55 0 15.5 6.95 15.5 15.5S336.39 87 327.84 87s-15.5-6.95-15.5-15.5S319.3 56 327.84 56zm-54.31 178.41-51.54 54.56a153.552 153.552 0 0 1-27.18-35.29l72.84-25.75c1.84 2.27 3.8 4.43 5.88 6.48zm2.01 88.19a152.69 152.69 0 0 1-42.27-23.73l51.94-54.98c4.18 2.78 8.63 5.16 13.29 7.11l-22.96 71.6zm37.28-67.18a76.875 76.875 0 0 0 18.23 1.53v75.01c-.9.02-1.81.04-2.71.04-13.08 0-26.01-1.68-38.49-4.93l22.97-71.65zm-55.6-44.39c.61 1.35 1.25 2.68 1.94 3.98l-71.08 25.13c-4.08-9.33-7.22-19.08-9.36-29.11h78.5zM363.4 466h-13.05v-27.5c0-4.14-3.36-7.5-7.5-7.5-4.14 0-7.5 3.36-7.5 7.5V466h-11.24V361.5c0-4.14-3.36-7.5-7.5-7.5h-34.76c-4.14 0-7.5 3.36-7.5 7.5V466h-12v-27.5c0-4.14-3.36-7.5-7.5-7.5-4.14 0-7.5 3.36-7.5 7.5V466H236V361.5c0-4.14-3.36-7.5-7.5-7.5h-34.66c-4.14 0-7.5 3.36-7.5 7.5V466h-13v-27.5c0-4.14-3.36-7.5-7.5-7.5-4.14 0-7.5 3.36-7.5 7.5V466H148V361.5c0-4.14-3.36-7.5-7.5-7.5h-34.66c-4.14 0-7.5 3.36-7.5 7.5V466h-12v-27.5c0-4.14-3.36-7.5-7.5-7.5-4.14 0-7.5 3.36-7.5 7.5V466H60.01l.44-220.49c0-1.99-.78-3.9-2.19-5.31a7.509 7.509 0 0 0-5.31-2.2H15v-26.97h148.41c2.81 14.51 7.52 28.51 13.96 41.67.08.16.15.33.23.48 4.46 9.04 9.73 17.69 15.75 25.81h-13.53c-4.14 0-7.5 3.36-7.5 7.5 0 4.14 3.36 7.5 7.5 7.5h26.07c3.58 3.82 7.35 7.47 11.3 10.96l.02.02c.41.36.81.72 1.22 1.08 4.97 4.3 10.16 8.28 15.55 11.94h-2.17c-4.14 0-7.5 3.36-7.5 7.5 0 4.14 3.36 7.5 7.5 7.5h29.03c.11 0 .22-.01.33-.02a167.982 167.982 0 0 0 67.17 14.02c11.83 0 23.58-1.25 35.05-3.68V466zm0-138.04c-5.71 1.34-11.5 2.33-17.34 3.01v-75.98c6.01-1.39 11.82-3.5 17.34-6.28v79.25zm0-96.62c-10.38 6.98-22.42 10.66-35.05 10.66-22.43 0-43.04-12.09-54.24-30.97h5.4c.06 0 .11-.01.17-.01.06 0 .11.01.17.01h31c4.14 0 7.5-3.36 7.5-7.5V187h14v16.53c0 4.14 3.36 7.5 7.5 7.5h23.55v20.31zm0-35.31h-16.05V179.5c0-4.14-3.36-7.5-7.5-7.5h-29c-4.14 0-7.5 3.36-7.5 7.5v16.53H287V161h23.84c4.14 0 7.5-3.36 7.5-7.5V135h14v18.5c0 4.14 3.36 7.5 7.5 7.5h23.55v35.03zM442.45 86h-36.11v-7h14.5c4.14 0 7.5-3.36 7.5-7.5 0-4.14-3.36-7.5-7.5-7.5h-22c-4.14 0-7.5 3.36-7.5 7.5v22c0 4.14 3.36 7.5 7.5 7.5h43.61v8H370.9c-4.14 0-7.5 3.36-7.5 7.5V146h-16.05v-18.5c0-4.14-3.36-7.5-7.5-7.5h-29c-4.14 0-7.5 3.36-7.5 7.5V146H287V15h20.34v32.5c0 .45.05.9.12 1.33-6.21 5.59-10.12 13.68-10.12 22.67 0 16.82 13.68 30.5 30.5 30.5s30.5-13.68 30.5-30.5c0-10.46-5.3-19.71-13.34-25.2V15h18.4v32.5c0 4.14 3.36 7.5 7.5 7.5h71.55v31zM150.84 238h-18.03c-4.14 0-7.5 3.36-7.5 7.5 0 4.14 3.36 7.5 7.5 7.5h18.03c4.14 0 7.5-3.36 7.5-7.5 0-4.14-3.35-7.5-7.5-7.5zm-45.74 0H82.84c-4.14 0-7.5 3.36-7.5 7.5 0 4.14 3.36 7.5 7.5 7.5h22.25c4.14 0 7.5-3.36 7.5-7.5.01-4.14-3.35-7.5-7.49-7.5zm45.74 41h-18.03c-4.14 0-7.5 3.36-7.5 7.5 0 4.14 3.36 7.5 7.5 7.5h18.03c4.14 0 7.5-3.36 7.5-7.5 0-4.14-3.35-7.5-7.5-7.5zm-45.74 0H82.84c-4.14 0-7.5 3.36-7.5 7.5 0 4.14 3.36 7.5 7.5 7.5h22.25c4.14 0 7.5-3.36 7.5-7.5.01-4.14-3.35-7.5-7.49-7.5zm45.74 39h-18.03c-4.14 0-7.5 3.36-7.5 7.5 0 4.14 3.36 7.5 7.5 7.5h18.03c4.14 0 7.5-3.36 7.5-7.5 0-4.14-3.35-7.5-7.5-7.5zm-45.74 0H82.84c-4.14 0-7.5 3.36-7.5 7.5 0 4.14 3.36 7.5 7.5 7.5h22.25c4.14 0 7.5-3.36 7.5-7.5.01-4.14-3.35-7.5-7.49-7.5zm99 0h-22.25c-4.14 0-7.5 3.36-7.5 7.5 0 4.14 3.36 7.5 7.5 7.5h22.25c4.14 0 7.5-3.36 7.5-7.5 0-4.14-3.36-7.5-7.5-7.5z"/></svg>