<svg xmlns="http://www.w3.org/2000/svg" viewBox="0 0 484.68 491.49" xml:space="preserve"><path fill="currentColor" d="M466.68 71h-79.74c-12.55 0-23.89 6.94-29.6 18.12l-19.85 38.87a171.261 171.261 0 0 0-50.34-23.89l9.54-13.4c8.44-11.85 7.18-28.01-2.98-38.42L244.87 2.26C243.46.82 241.52 0 239.5 0s-3.96.82-5.37 2.26l-47.66 48.81c-10.9 11.16-11.5 28.55-1.41 40.44l10.13 11.94c-17.7 4.8-34.27 12.36-49.21 22.19l-18.65-36.51C121.64 77.94 110.29 71 97.74 71H18C8.08 71 0 79.08 0 89v2c0 9.92 8.08 18 18 18h44.5c1.93 0 3.5 1.57 3.5 3.5s-1.57 3.5-3.5 3.5H41c-9.92 0-18 8.08-18 18s8.08 18 18 18h44.76l10.91 22.94C78.88 201.96 68.5 234.29 68.5 269c0 31.93 8.78 61.84 24.04 87.46l-58.99 58.99c-7.74 7.74-7.74 20.34 0 28.08 7.74 7.74 20.34 7.74 28.08 0l8.56-8.56c.92-.92 2-1.06 2.56-1.06s1.64.14 2.56 1.06a3.615 3.615 0 0 1 0 5.11l-19.09 19.09a18.804 18.804 0 0 0-5.55 13.39c0 5.06 1.97 9.81 5.55 13.39 3.69 3.69 8.54 5.54 13.39 5.54 4.85 0 9.7-1.85 13.39-5.54l69.51-69.51c23.48 13.99 50.57 22.51 79.5 23.85v16.53c0 13.88 11.3 25.18 25.18 25.18h29.32c4.14 0 7.5-3.36 7.5-7.5 0-4.14-3.36-7.5-7.5-7.5h-29.32c-5.61 0-10.18-4.57-10.18-10.18v-16.48c28.86-1.17 55.9-9.49 79.39-23.25l68.86 68.86c3.69 3.69 8.54 5.54 13.39 5.54 4.85 0 9.7-1.85 13.39-5.54 7.38-7.38 7.38-19.4 0-26.78l-19.09-19.09c-.92-.92-1.06-2-1.06-2.56s.14-1.63 1.06-2.56c.92-.92 2-1.06 2.56-1.06s1.64.14 2.56 1.06l8.56 8.56c7.74 7.74 20.34 7.74 28.08 0 7.74-7.74 7.74-20.34 0-28.08l-57.88-57.88c15.67-25.87 24.69-56.19 24.69-88.57 0-32.94-9.35-63.74-25.51-89.9.07-.13.15-.25.21-.38l12.7-26.71h44.76c9.92 0 18-8.08 18-18s-8.08-18-18-18h-21.5c-1.93 0-3.5-1.57-3.5-3.5s1.57-3.5 3.5-3.5h44.5c9.92 0 18-8.08 18-18v-2c0-9.92-8.08-18-18-18zM277.5 61c4.14 0 7.5 3.36 7.5 7.5 0 4.14-3.36 7.5-7.5 7.5-4.14 0-7.5-3.36-7.5-7.5 0-4.14 3.36-7.5 7.5-7.5zm-38-42.76 28.96 29.67C260.55 51.39 255 59.31 255 68.5c0 12.41 10.09 22.5 22.5 22.5.19 0 .38-.01.57-.01l-6.69 9.4A171.805 171.805 0 0 0 240 97.5c-9.6 0-19.02.8-28.19 2.32l-7.51-8.84c12.04-.42 21.7-10.34 21.7-22.48 0-9.74-6.22-18.05-14.9-21.18l28.4-29.08zM203.5 61c4.14 0 7.5 3.36 7.5 7.5 0 4.14-3.36 7.5-7.5 7.5-4.14 0-7.5-3.36-7.5-7.5 0-4.14 3.36-7.5 7.5-7.5zm-113 76H41c-1.65 0-3-1.35-3-3s1.35-3 3-3h21.5c10.2 0 18.5-8.3 18.5-18.5S72.7 94 62.5 94H18c-1.65 0-3-1.35-3-3v-2c0-1.65 1.35-3 3-3h79.74c6.89 0 13.11 3.81 16.24 9.94l19.7 38.58c-3.25 2.58-6.41 5.27-9.46 8.07l-18.12-33.65c-1.96-3.65-6.51-5.01-10.16-3.05-3.65 1.96-5.01 6.51-3.05 10.16l20.26 37.63c-2.21 2.43-4.35 4.93-6.42 7.49l-9.47-19.9A7.47 7.47 0 0 0 90.5 137zM72.38 475.35c-1.53 1.53-4.03 1.54-5.56 0a3.91 3.91 0 0 1-1.15-2.78c0-1.05.41-2.04 1.15-2.78l19.09-19.09c7.26-7.26 7.26-19.07 0-26.33-3.52-3.52-8.19-5.45-13.17-5.45-4.97 0-9.65 1.94-13.16 5.45l-8.56 8.56a4.859 4.859 0 0 1-6.86 0 4.859 4.859 0 0 1 0-6.86l56.8-56.8c3.63 5.02 7.52 9.84 11.67 14.44l-21.34 21.34a7.502 7.502 0 0 0 0 10.61 7.483 7.483 0 0 0 5.3 2.2c1.92 0 3.84-.73 5.3-2.2l21.26-21.26c5.23 4.88 10.76 9.43 16.56 13.63l-67.33 67.32zm361.7-49.29a4.859 4.859 0 0 1 0 6.86 4.859 4.859 0 0 1-6.86 0l-8.56-8.56c-7.26-7.26-19.07-7.26-26.33 0a18.479 18.479 0 0 0-5.45 13.16c0 4.97 1.94 9.65 5.45 13.17l19.09 19.09a3.941 3.941 0 0 1 0 5.56c-1.53 1.53-4.03 1.54-5.56 0l-66.58-66.58c5.84-4.16 11.4-8.68 16.67-13.52l20.4 20.4a7.483 7.483 0 0 0 5.3 2.2c1.92 0 3.84-.73 5.3-2.2a7.502 7.502 0 0 0 0-10.61l-20.41-20.41c4.17-4.56 8.09-9.35 11.76-14.34l55.78 55.78zM396.5 269c0 86.29-70.21 156.5-156.5 156.5S83.5 355.29 83.5 269 153.71 112.5 240 112.5 396.5 182.71 396.5 269zm73.18-178c0 1.65-1.35 3-3 3h-44.5c-10.2 0-18.5 8.3-18.5 18.5s8.3 18.5 18.5 18.5h21.5c1.65 0 3 1.35 3 3s-1.35 3-3 3h-49.5c-2.89 0-5.53 1.66-6.77 4.28l-11.23 23.6c-2.13-2.78-4.34-5.5-6.63-8.14.48-.49.89-1.05 1.23-1.68l21-39c1.96-3.65.6-8.2-3.05-10.16-3.65-1.97-8.2-.6-10.16 3.05l-19.69 36.57c-2.99-2.88-6.08-5.65-9.26-8.3l21.07-41.27c3.13-6.13 9.36-9.94 16.24-9.94h79.74c1.65 0 3 1.35 3 3V91zM372.5 275h-69c-4.14 0-7.5 3.36-7.5 7.5v39c0 4.14 3.36 7.5 7.5 7.5h56c3.23 0 6.09-2.07 7.12-5.13l13-39c.76-2.29.38-4.8-1.03-6.76a7.537 7.537 0 0 0-6.09-3.11zm-18.41 39H311v-24h51.09l-8 24zM259.5 133h-39c-4.14 0-7.5 3.36-7.5 7.5v39c0 4.14 3.36 7.5 7.5 7.5h39c4.14 0 7.5-3.36 7.5-7.5v-39c0-4.14-3.36-7.5-7.5-7.5zm-7.5 39h-24v-24h24v24zm7.5 103h-39c-4.14 0-7.5 3.36-7.5 7.5v39c0 4.14 3.36 7.5 7.5 7.5h39c4.14 0 7.5-3.36 7.5-7.5v-39c0-4.14-3.36-7.5-7.5-7.5zm-7.5 39h-24v-24h24v24zm7.5 32h-39c-4.14 0-7.5 3.36-7.5 7.5v39c0 4.14 3.36 7.5 7.5 7.5h39c4.14 0 7.5-3.36 7.5-7.5v-39c0-4.14-3.36-7.5-7.5-7.5zm-7.5 39h-24v-24h24v24zm44-173.5v39c0 4.14 3.36 7.5 7.5 7.5h69c2.41 0 4.67-1.16 6.08-3.11a7.512 7.512 0 0 0 1.03-6.76l-13-39a7.509 7.509 0 0 0-7.12-5.13h-56c-4.13 0-7.49 3.36-7.49 7.5zm15 7.5h43.09l8 24H311v-24zm28.43-36.63c1.16-2.8.52-6.03-1.62-8.17l-39-39a7.488 7.488 0 0 0-8.17-1.62 7.508 7.508 0 0 0-4.63 6.93v39c0 4.14 3.36 7.5 7.5 7.5h39a7.53 7.53 0 0 0 6.92-4.64zM301 172v-13.39L314.39 172H301zm-41.5 32h-39c-4.14 0-7.5 3.36-7.5 7.5v39c0 4.14 3.36 7.5 7.5 7.5h39c4.14 0 7.5-3.36 7.5-7.5v-39c0-4.14-3.36-7.5-7.5-7.5zm-7.5 39h-24v-24h24v24zm-74.5-39h-56c-3.23 0-6.09 2.07-7.12 5.13l-13 39c-.76 2.29-.38 4.8 1.03 6.76a7.478 7.478 0 0 0 6.08 3.11h69c4.14 0 7.5-3.36 7.5-7.5v-39c.01-4.14-3.35-7.5-7.49-7.5zm-7.5 39h-51.09l8-24H170v24zm20.37-109.43a7.502 7.502 0 0 0-8.17 1.62l-39 39a7.488 7.488 0 0 0-1.62 8.17c1.16 2.8 3.9 4.63 6.93 4.63h39c4.14 0 7.5-3.36 7.5-7.5v-39a7.53 7.53 0 0 0-4.64-6.92zM180 172h-13.39L180 158.61V172zm162.5 174h-39c-4.14 0-7.5 3.36-7.5 7.5v39c0 3.03 1.83 5.77 4.63 6.93a7.504 7.504 0 0 0 8.18-1.63l39-39a7.488 7.488 0 0 0 1.62-8.17 7.508 7.508 0 0 0-6.93-4.63zM311 374.39V361h13.39L311 374.39zM177.5 346h-39a7.502 7.502 0 0 0-5.31 12.8l39 39a7.529 7.529 0 0 0 5.31 2.2c.97 0 1.94-.19 2.87-.57 2.8-1.16 4.63-3.9 4.63-6.93v-39c0-4.14-3.36-7.5-7.5-7.5zm-7.5 28.39L156.61 361H170v13.39zm7.5-99.39h-69c-2.41 0-4.67 1.16-6.08 3.11a7.512 7.512 0 0 0-1.03 6.76l13 39a7.509 7.509 0 0 0 7.12 5.13h56c4.14 0 7.5-3.36 7.5-7.5v-39c-.01-4.14-3.37-7.5-7.51-7.5zm-7.5 39h-43.09l-8-24H170v24z"/></svg>