<svg xmlns="http://www.w3.org/2000/svg" viewBox="0 0 319.5 476.48" xml:space="preserve"><path fill="currentColor" d="m313.63 328.13-7.47-1.66 9.66-5.73c3.56-2.11 4.74-6.71 2.63-10.28-2.11-3.56-6.71-4.74-10.28-2.63l-15.75 9.33-4.93-18.08c-.03-.11-.07-.21-.1-.32-.02-.07-.05-.15-.07-.22a7.35 7.35 0 0 0-.41-.95c-.02-.03-.04-.06-.06-.1-.16-.3-.34-.58-.53-.84l-.09-.12c-.21-.28-.45-.54-.7-.79-.05-.05-.09-.09-.14-.13-.27-.25-.54-.48-.84-.69l-.01-.01-38.25-26.64c-5.23-3.64-8.55-9.38-9.1-15.64l-5.68-76.29 45.64-32.55a7.486 7.486 0 0 0 3.04-7.33l-6.56-39.74 14.28-20.79c2.35-3.41 1.48-8.08-1.94-10.43a7.504 7.504 0 0 0-10.43 1.94l-8.44 12.29-5.7-12.65a7.5 7.5 0 0 0-9.92-3.76 7.5 7.5 0 0 0-3.76 9.92l10.09 22.4-5.52 21.34-25.48 12.31-2.14-21.09a67.539 67.539 0 0 0 13.71-40.75C238.4 30.26 208.14 0 170.95 0 154.07 0 76.8 15.97 68.04 17.79a7.493 7.493 0 0 0-5.97 7.34v16.14h-30.1l-20.01-14.8c-3.33-2.46-8.03-1.76-10.49 1.57-2.46 3.33-1.76 8.03 1.57 10.49l14.08 10.41L2.75 60.7A7.495 7.495 0 0 0 7.5 74c1.67 0 3.35-.55 4.75-1.7l19.6-16.03h30.22v11.18c0 3.61 2.57 6.71 6.12 7.37l36.86 6.91c3.09 14.2 10.79 27.18 21.8 36.73l-7.5 26.51-41.96 16.36-10.59-15.79-1.91-26.23c-.3-4.13-3.89-7.24-8.02-6.94-4.13.3-7.24 3.89-6.94 8.02l1.08 14.85-13.67-7.07c-3.68-1.9-8.2-.46-10.11 3.22-1.9 3.68-.46 8.2 3.22 10.11l22.67 11.72 8.99 32.12a7.5 7.5 0 0 0 6.72 5.46l38.44 2.58-13.92 61.95a7.497 7.497 0 0 0 5.67 8.96c4.04.91 8.05-1.63 8.96-5.67l15.84-70.49c.48-2.14 0-4.38-1.31-6.13a7.527 7.527 0 0 0-5.51-3l-37.27-2.5 48.53-18.92a7.476 7.476 0 0 0 4.49-4.95l9.88-34.88c.85-3.01-.25-6.22-2.76-8.08-11.44-8.44-19.06-21.33-20.9-35.35a7.496 7.496 0 0 0-6.05-6.4L77.07 61.2V31.24C103.81 25.77 158.96 15 170.95 15c28.92 0 52.45 23.53 52.45 52.45 0 12.29-4.34 24.24-12.23 33.65a7.465 7.465 0 0 0-1.71 5.57l3.53 34.79a7.538 7.538 0 0 0 3.8 5.79 7.52 7.52 0 0 0 6.92.21l38.25-18.48c.59-.29 1.14-.65 1.63-1.07l1.05 6.38-45.27 32.29a7.491 7.491 0 0 0-3.12 6.66l6 80.59c.94 10.8 6.58 20.55 15.47 26.74l18.65 12.99h-9.85c-12.75 0-23.12 10.37-23.12 23.12 0 9.58 6.03 18.29 15 21.65L290.82 358c6.07 2.28 10.15 8.17 10.15 14.65 0 8.09-6.07 14.78-14.12 15.58l-203.9 20.06-.25.03c-7.7 1.02-13.05 7.39-12.72 15.15.33 7.76 6.2 13.65 13.96 14.01h.13l131.01 3.8-140.5 19.49c-.05.01-.1.01-.15.02-14.31 2.29-28.14-1.2-37.96-9.57C28.55 444.47 24 435.05 24 425.39c0-11.85 2.86-20.37 9.01-26.82 6.89-7.23 18.11-12.05 34.27-14.72l101.39-15.94a7.51 7.51 0 0 0 6.31-6.76c.3-3.44-1.79-6.63-5.05-7.75l-26.69-9.09c-.08-.03-.16-.05-.25-.08-9.92-3-23.15-10.83-29.26-20-.33-.5-.72-.94-1.14-1.33l-29.28-39.56L110 293.93c3.85 1.53 8.21-.36 9.74-4.21 1.53-3.85-.36-8.21-4.21-9.74L64.4 259.71a.495.495 0 0 0-.13-.04c-.11-.04-.22-.08-.33-.11a4.94 4.94 0 0 0-.36-.11c-.1-.03-.2-.05-.29-.07-.14-.03-.27-.06-.41-.08-.09-.02-.18-.03-.27-.04-.14-.02-.29-.03-.43-.04-.09-.01-.18-.01-.27-.02-.14-.01-.28 0-.42 0-.1 0-.19 0-.29.01-.13.01-.26.02-.38.04-.11.01-.21.02-.32.04l-.34.06c-.12.02-.23.04-.35.07l-.3.09c-.21.06-.41.13-.61.21-.13.05-.25.1-.37.15-.09.04-.17.09-.25.13-.13.07-.26.13-.39.21-.07.04-.15.09-.22.14-.14.09-.27.17-.4.27l-.09.06c-.04.03-.07.06-.11.09-.12.1-.25.2-.37.3-.07.06-.14.12-.21.19l-.3.3c-.07.08-.15.15-.22.23-.08.09-.15.18-.22.27-.08.1-.16.2-.23.3-.05.08-.1.15-.15.23-.08.12-.16.25-.23.37-.01.01-.01.02-.02.03L31.7 304.14H10.5c-4.14 0-7.5 3.36-7.5 7.5 0 4.14 3.36 7.5 7.5 7.5h17.1l-5.3 18.26c-1.15 3.98 1.13 8.14 5.11 9.29.7.2 1.4.3 2.09.3 3.25 0 6.25-2.13 7.2-5.41l9-31c.11-.37.18-.75.23-1.12l16.53-29.07 38.73 52.32c.26.35.55.66.85.95 8.13 11.39 22.49 20.08 34.24 24.14L64.9 369.02c-19.55 3.23-33.53 9.51-42.74 19.18C13.3 397.51 9 409.67 9 425.39c0 14.06 6.47 27.64 17.74 37.25 10.57 9.02 24.43 13.84 39.14 13.84 3.57 0 7.2-.28 10.84-.86l229.26-31.8a7.507 7.507 0 0 0 6.46-7.84 7.498 7.498 0 0 0-7.27-7.09l-215.01-6.24 198.17-19.5a30.544 30.544 0 0 0 27.65-30.5c0-12.71-7.99-24.24-19.89-28.7l-52.42-19.66a8.16 8.16 0 0 1-5.27-7.6c0-4.48 3.64-8.12 8.12-8.12h28.02l6.43 23.57a7.498 7.498 0 0 0 5.61 5.35l23.8 5.29c.55.12 1.1.18 1.63.18 3.44 0 6.54-2.38 7.31-5.88.9-4.05-1.65-8.06-5.69-8.95zM170.5 84.45c11.74 0 21.3-9.55 21.3-21.3s-9.56-21.3-21.3-21.3-21.3 9.56-21.3 21.3 9.56 21.3 21.3 21.3zm0-27.6c3.47 0 6.3 2.83 6.3 6.3 0 3.47-2.83 6.3-6.3 6.3-3.47 0-6.3-2.83-6.3-6.3 0-3.47 2.83-6.3 6.3-6.3zm-34.5.8c-4.14 0-7.5 3.36-7.5 7.5 0 23.16 18.84 42 42 42s42-18.84 42-42c0-4.14-3.36-7.5-7.5-7.5-4.14 0-7.5 3.36-7.5 7.5 0 14.89-12.11 27-27 27s-27-12.11-27-27c0-4.14-3.36-7.5-7.5-7.5zM98.17 384.28l-6.54.77c-4.11.48-7.06 4.21-6.57 8.32a7.496 7.496 0 0 0 8.33 6.57l6.54-.77c4.11-.48 7.06-4.21 6.57-8.32-.49-4.11-4.21-7.06-8.33-6.57zm33.84-3.98-6.11.72a7.496 7.496 0 0 0-6.57 8.33 7.496 7.496 0 0 0 8.33 6.57l6.11-.72a7.496 7.496 0 0 0 6.57-8.33c-.49-4.11-4.21-7.06-8.33-6.57zm30.29-3.56-4.17.49c-4.11.48-7.06 4.21-6.57 8.32a7.496 7.496 0 0 0 8.33 6.57l4.17-.49c4.11-.48 7.06-4.21 6.57-8.32-.49-4.11-4.22-7.06-8.33-6.57zm-26.14-150.8-7 33c-.47 2.21.09 4.52 1.51 6.28a7.496 7.496 0 0 0 5.83 2.78h55.45l2.97 22H140.5c-2.23 0-4.35 1-5.78 2.72a7.503 7.503 0 0 0-1.59 6.18l4 21a7.49 7.49 0 0 0 4.25 5.42l92.59 42.37c.11.05.17.09.18.09.05.11.01.41-.06.48-.02.01-.08.03-.21.05l-41.59 4.89c-4.11.48-7.06 4.21-6.57 8.32a7.496 7.496 0 0 0 8.33 6.57l41.59-4.89c6.91-.81 12.27-5.97 13.35-12.84s-2.44-13.43-8.76-16.32l-89.07-40.76-1.58-8.29h53.94c2.16 0 4.22-.93 5.65-2.56a7.55 7.55 0 0 0 1.79-5.94l-5-37c-.5-3.72-3.68-6.5-7.43-6.5h-52.74l3.82-18h43.92c2.11 0 4.13-.89 5.55-2.45a7.503 7.503 0 0 0 1.92-5.76l-4-42a7.504 7.504 0 0 0-7.47-6.79h-28.91l3.1-16h25.81c2.11 0 4.13-.89 5.55-2.46a7.483 7.483 0 0 0 1.91-5.76l-3-31c-.4-4.12-4.07-7.15-8.19-6.74-4.12.4-7.14 4.06-6.74 8.19l2.2 22.78H157.5c-3.59 0-6.68 2.55-7.36 6.08l-6 31c-.43 2.2.15 4.47 1.58 6.2a7.493 7.493 0 0 0 5.79 2.73h31.18l2.57 27H143.5a7.493 7.493 0 0 0-7.34 5.93zM62 453c4.42 0 8-3.58 8-8s-3.58-8-8-8-8 3.58-8 8 3.58 8 8 8zm-16-37c-4.42 0-8 3.58-8 8s3.58 8 8 8 8-3.58 8-8-3.58-8-8-8zm16-23c-4.42 0-8 3.58-8 8s3.58 8 8 8 8-3.58 8-8-3.58-8-8-8z"/></svg>