<svg xmlns="http://www.w3.org/2000/svg" viewBox="0 0 429.5 495.24" xml:space="preserve"><g fill="currentColor"><circle cx="112.49" cy="227.53" r="12.33"/><path d="M329.71 187.92v-27.95c0-4.14-3.36-7.5-7.5-7.5h-95.86c-4.14 0-7.5 3.36-7.5 7.5v3.65c0 2.41-1.96 4.37-4.37 4.37s-4.37-1.96-4.37-4.37v-3.65c0-4.14-3.36-7.5-7.5-7.5h-95.86c-4.14 0-7.5 3.36-7.5 7.5v27.51c-16.79 5.57-28.94 21.41-28.94 40.05 0 23.27 18.93 42.19 42.19 42.19 23.27 0 42.19-18.93 42.19-42.19 0-11.24-4.42-21.45-11.61-29.02h36.97c1.76 0 3.19 1.43 3.19 3.19v58.5h-21.72c-4.14 0-7.5 3.36-7.5 7.5v32.87c0 4.14 3.36 7.5 7.5 7.5h24.45V317c0 4.14 3.36 7.5 7.5 7.5h42c4.14 0 7.5-3.36 7.5-7.5v-8.93h24.45c4.14 0 7.5-3.36 7.5-7.5V267.7c0-4.14-3.36-7.5-7.5-7.5H245.7v-58.5c0-1.76 1.43-3.19 3.19-3.19h35.69c-7.19 7.57-11.61 17.78-11.61 29.02 0 23.27 18.93 42.19 42.19 42.19 23.27 0 42.19-18.93 42.19-42.19.02-18.16-11.51-33.68-27.64-39.61zm-217.22 66.81c-14.99 0-27.19-12.2-27.19-27.19 0-14.99 12.2-27.19 27.19-27.19 14.99 0 27.19 12.2 27.19 27.19.01 14.99-12.19 27.19-27.19 27.19zm118.22-53.03v66c0 4.14 3.36 7.5 7.5 7.5h21.72v17.87h-24.45c-4.14 0-7.5 3.36-7.5 7.5v8.93h-27v-8.93c0-4.14-3.36-7.5-7.5-7.5h-24.45V275.2h21.72c4.14 0 7.5-3.36 7.5-7.5v-66c0-10.03-8.16-18.19-18.19-18.19h-65.81v-16.04h81.25c1.79 8.84 9.62 15.52 18.99 15.52s17.2-6.68 18.99-15.52h81.25v16.04H248.9c-10.03 0-18.19 8.16-18.19 18.19zm84.47 53.03c-14.99 0-27.19-12.2-27.19-27.19 0-14.99 12.2-27.19 27.19-27.19 14.99 0 27.19 12.2 27.19 27.19 0 14.99-12.2 27.19-27.19 27.19z"/><circle transform="rotate(-80.781 315.184 227.527)" cx="315.18" cy="227.53" r="12.33"/><path d="M337.27 333.24H91.68c-4.14 0-7.5 3.36-7.5 7.5v94.95c0 4.14 3.36 7.5 7.5 7.5h57.69c4.14 0 7.5-3.36 7.5-7.5s-3.36-7.5-7.5-7.5H99.18v-79.95h230.6v79.95h-51.95c-4.14 0-7.5 3.36-7.5 7.5s3.36 7.5 7.5 7.5h59.45c4.14 0 7.5-3.36 7.5-7.5v-94.95c-.01-4.14-3.36-7.5-7.51-7.5z"/><path d="M306.23 413.07c4.14 0 7.5-3.36 7.5-7.5v-34.69c0-4.14-3.36-7.5-7.5-7.5H122.72c-4.14 0-7.5 3.36-7.5 7.5v34.69c0 4.14 3.36 7.5 7.5 7.5h40.25l5.56 52.6a32.973 32.973 0 0 0 32.86 29.57h26.15c16.95 0 31.08-12.71 32.86-29.57l5.56-52.6h40.27zM169.3 385.28v-6.91h37.68v6.91H169.3zm52.68-6.91h38.23v6.91h-38.23v-6.91zm76.75 19.7H275.2v-19.69h23.53v19.69zm-168.51-19.7h24.08v19.69h-24.08v-19.69zm115.28 85.72a18.007 18.007 0 0 1-17.95 16.15H201.4c-9.26 0-16.97-6.94-17.95-16.15l-6.75-63.8h30.27v39.98c0 4.14 3.36 7.5 7.5 7.5s7.5-3.36 7.5-7.5v-39.98h30.27l-6.74 63.8zM70.69 323.4v-34.15c0-15.51-12.62-28.13-28.13-28.13H28.13C12.62 261.12 0 273.74 0 289.25v34.15c0 4.14 3.36 7.5 7.5 7.5 4.14 0 7.5-3.36 7.5-7.5v-34.15c0-7.24 5.89-13.13 13.13-13.13h14.43c7.24 0 13.13 5.89 13.13 13.13v34.15c0 4.14 3.36 7.5 7.5 7.5s7.5-3.36 7.5-7.5z"/><path d="M42.39 346.22v-46.56c0-4.14-3.36-7.5-7.5-7.5-4.14 0-7.5 3.36-7.5 7.5v46.56c0 4.14 3.36 7.5 7.5 7.5 4.14 0 7.5-3.36 7.5-7.5z"/><circle transform="rotate(-13.286 34.872 379.925)" cx="34.89" cy="380" r="12.78"/><circle transform="rotate(-10.9 46.308 425.214)" cx="46.3" cy="425.2" r="10.96"/><circle cx="69.13" cy="460.8" r="9.13"/><circle transform="rotate(-45.001 112.946 479.066)" cx="112.95" cy="479.06" r="9.13"/><path d="M133.49 317.66c4.14 0 7.5-3.36 7.5-7.5 0-4.14-3.36-7.5-7.5-7.5h-33.32c-4.14 0-7.5 3.36-7.5 7.5 0 4.14 3.36 7.5 7.5 7.5h33.32zM212.92 58.82c16.22 0 29.41-13.19 29.41-29.41C242.34 13.19 229.14 0 212.92 0s-29.41 13.19-29.41 29.41 13.2 29.41 29.41 29.41zm0-43.82c7.95 0 14.41 6.47 14.41 14.41 0 7.95-6.47 14.41-14.41 14.41-7.95 0-14.41-6.47-14.41-14.41S204.98 15 212.92 15zM106.18 132.68a7.497 7.497 0 0 0 4.13-9.77 7.497 7.497 0 0 0-9.77-4.13c-31.47 12.76-52.39 38.78-60.5 75.25-5.99 26.97-2.89 50-2.75 50.97.52 3.75 3.74 6.46 7.42 6.46.35 0 .7-.02 1.05-.07 4.1-.57 6.96-4.36 6.39-8.47-.03-.21-2.87-21.29 2.54-45.64 7.09-31.88 24.41-53.62 51.49-64.6z"/><path d="M10.49 251.46c.34 0 .69-.02 1.04-.07 4.1-.57 6.96-4.36 6.4-8.46-.04-.27-3.66-27.46 3.31-58.38 9.1-40.44 31.19-68.02 65.66-82a7.497 7.497 0 0 0 4.13-9.77 7.497 7.497 0 0 0-9.77-4.13C42.38 104.41 16.52 136.6 6.5 181.72-.95 215.23 2.9 243.8 3.07 245c.52 3.75 3.73 6.46 7.42 6.46zM127.1 114.52c16.22 0 29.41-13.19 29.41-29.41S143.32 55.7 127.1 55.7 97.69 68.89 97.69 85.11c0 16.21 13.19 29.41 29.41 29.41zm0-43.83c7.95 0 14.41 6.47 14.41 14.41s-6.46 14.41-14.41 14.41-14.41-6.46-14.41-14.41 6.47-14.41 14.41-14.41zM147.19 55.17c1.62 0 3.25-.52 4.63-1.6l25.56-20.09a7.495 7.495 0 0 0 1.26-10.53 7.495 7.495 0 0 0-10.53-1.26l-25.56 20.09a7.495 7.495 0 0 0 4.64 13.39zM172.52 48.3l-10.96 9.13a7.5 7.5 0 0 0 4.81 13.26c1.69 0 3.4-.57 4.8-1.74l10.96-9.13a7.5 7.5 0 0 0 .96-10.56c-2.66-3.18-7.39-3.61-10.57-.96zM401.37 261.12h-14.43c-15.51 0-28.13 12.62-28.13 28.13v34.15c0 4.14 3.36 7.5 7.5 7.5s7.5-3.36 7.5-7.5v-34.15c0-7.24 5.89-13.13 13.13-13.13h14.43c7.24 0 13.13 5.89 13.13 13.13v34.15c0 4.14 3.36 7.5 7.5 7.5 4.14 0 7.5-3.36 7.5-7.5v-34.15c0-15.51-12.62-28.13-28.13-28.13z"/><path d="M402.11 346.22v-46.56c0-4.14-3.36-7.5-7.5-7.5-4.14 0-7.5 3.36-7.5 7.5v46.56c0 4.14 3.36 7.5 7.5 7.5 4.14 0 7.5-3.36 7.5-7.5z"/><circle transform="rotate(-13.286 394.518 379.935)" cx="394.61" cy="380" r="12.78"/><circle transform="rotate(-58.286 383.159 425.175)" cx="383.2" cy="425.2" r="10.96"/><circle cx="360.37" cy="460.8" r="9.13"/><circle transform="rotate(-13.286 316.471 478.974)" cx="316.55" cy="479.06" r="9.13"/><path d="M329.33 317.66c4.14 0 7.5-3.36 7.5-7.5 0-4.14-3.36-7.5-7.5-7.5h-33.32c-4.14 0-7.5 3.36-7.5 7.5 0 4.14 3.36 7.5 7.5 7.5h33.32zM383.73 251.39a7.507 7.507 0 0 0 8.47-6.39c.14-.97 3.24-24-2.75-50.97-8.1-36.47-29.02-62.5-60.5-75.25-3.84-1.55-8.21.29-9.77 4.13a7.497 7.497 0 0 0 4.13 9.77c26.95 10.93 44.24 32.52 51.39 64.18 5.51 24.38 2.66 45.86 2.63 46.07-.56 4.11 2.3 7.89 6.4 8.46z"/><path d="M342.61 102.56c34.47 13.97 56.56 41.56 65.66 82 6.96 30.92 3.34 58.11 3.31 58.38-.57 4.1 2.29 7.89 6.39 8.46a7.507 7.507 0 0 0 8.47-6.39c.17-1.2 4.02-29.77-3.42-63.28-10.03-45.13-35.88-77.31-74.76-93.07-3.84-1.55-8.21.29-9.77 4.13-1.57 3.84.28 8.21 4.12 9.77zM272.99 85.1c0 16.22 13.19 29.41 29.41 29.41s29.41-13.19 29.41-29.41-13.19-29.41-29.41-29.41-29.41 13.2-29.41 29.41zm29.41-14.41c7.95 0 14.41 6.47 14.41 14.41s-6.47 14.41-14.41 14.41c-7.95 0-14.41-6.46-14.41-14.41s6.46-14.41 14.41-14.41zM252.11 33.48l25.56 20.09a7.46 7.46 0 0 0 4.63 1.6c2.22 0 4.42-.98 5.9-2.87a7.504 7.504 0 0 0-1.26-10.53l-25.56-20.09a7.504 7.504 0 0 0-10.53 1.26 7.514 7.514 0 0 0 1.26 10.54zM247.38 59.82l10.96 9.13c1.4 1.17 3.1 1.74 4.8 1.74a7.5 7.5 0 0 0 4.81-13.26l-10.96-9.13a7.5 7.5 0 0 0-10.56.96 7.49 7.49 0 0 0 .95 10.56zM228.5 114.19c4.14 0 7.5-3.36 7.5-7.5v-32c0-4.14-3.36-7.5-7.5-7.5h-32c-4.14 0-7.5 3.36-7.5 7.5v32c0 4.14 3.36 7.5 7.5 7.5h32zm-24.5-32h17v17h-17v-17zM142 132.69c0 4.14 3.36 7.5 7.5 7.5h128c4.14 0 7.5-3.36 7.5-7.5s-3.36-7.5-7.5-7.5h-128c-4.14 0-7.5 3.36-7.5 7.5z"/></g></svg>