<svg xmlns="http://www.w3.org/2000/svg" viewBox="0 0 487 315.57" xml:space="preserve"><path fill="currentColor" d="M479.5 239.08h-35.08v-54.1c0-4.14-3.36-7.5-7.5-7.5h-44.14v-53.99c0-4.14-3.36-7.5-7.5-7.5h-47.76v-54c0-4.14-3.36-7.5-7.5-7.5h-27.83V15.04H319c4.14 0 7.5-3.36 7.5-7.5 0-4.14-3.36-7.5-7.5-7.5h-23.62c-.23-.02-.46-.04-.7-.04H192.31c-.24 0-.47.01-.7.04H168c-4.14 0-7.5 3.36-7.5 7.5 0 4.14 3.36 7.5 7.5 7.5h16.81V54.5h-27.83c-4.14 0-7.5 3.36-7.5 7.5v53.99h-47.76c-4.14 0-7.5 3.36-7.5 7.5v53.99H50.08c-4.14 0-7.5 3.36-7.5 7.5v54.1H7.5c-4.14 0-7.5 3.36-7.5 7.5v61.49c0 4.14 3.36 7.5 7.5 7.5h472c4.14 0 7.5-3.36 7.5-7.5v-61.49c0-4.14-3.36-7.5-7.5-7.5zM199.81 15.04h87.37V54.5H266.5V32.54c0-4.14-3.36-7.5-7.5-7.5-4.14 0-7.5 3.36-7.5 7.5V54.5h-18V32.54c0-4.14-3.36-7.5-7.5-7.5-4.14 0-7.5 3.36-7.5 7.5V54.5h-18.69V15.04zm23.69 180.14v-20.29h40v20.29h-40zm40 15v20.29h-40v-20.29h40zm-40-50.29V139.6h40v20.29h-40zm0 85.57h40v20.29h-40v-20.29zm40-120.85h-40v-20.29h40v20.29zm-40 156.14h40v19.82h-40v-19.82zm40-191.43h-40V69.49h40v19.83zM15 254.08h174.31c4.14 0 7.5-3.36 7.5-7.5 0-4.14-3.36-7.5-7.5-7.5H57.58v-46.6h131.73c4.14 0 7.5-3.36 7.5-7.5 0-4.14-3.36-7.5-7.5-7.5h-80.1v-46.49h80.1c4.14 0 7.5-3.36 7.5-7.5 0-4.14-3.36-7.5-7.5-7.5h-24.83v-46.5h44.02v231.08H15v-46.49zm457 46.49H278.5V69.49h44.02v46.49h-25.8c-4.14 0-7.5 3.36-7.5 7.5 0 4.14 3.36 7.5 7.5 7.5h81.06v46.49h-81.06c-4.14 0-7.5 3.36-7.5 7.5 0 4.14 3.36 7.5 7.5 7.5h132.7v46.6h-132.7c-4.14 0-7.5 3.36-7.5 7.5 0 4.14 3.36 7.5 7.5 7.5H472v46.5z"/></svg>